<svg preserveAspectRatio="none" width="100%" height="100%" overflow="visible" style="display: block;" viewBox="0 0 22 22" fill="none" xmlns="http://www.w3.org/2000/svg">
<g id="Frame">
<path id="Vector" d="M8.25 11C10.275 11 11.9167 9.35838 11.9167 7.33333C11.9167 5.30829 10.275 3.66667 8.25 3.66667C6.22496 3.66667 4.58333 5.30829 4.58333 7.33333C4.58333 9.35838 6.22496 11 8.25 11Z" fill="var(--fill-0, #F5D547)"/>
<path id="Vector_2" d="M0.916666 20.1667C0.916666 16.1333 4.21667 12.8333 8.25 12.8333C12.2833 12.8333 15.5833 16.1333 15.5833 20.1667" fill="var(--fill-0, #F5D547)"/>
<path id="Vector_3" opacity="0.5" d="M15.5833 8.25C17.1021 8.25 18.3333 7.01878 18.3333 5.5C18.3333 3.98122 17.1021 2.75 15.5833 2.75C14.0645 2.75 12.8333 3.98122 12.8333 5.5C12.8333 7.01878 14.0645 8.25 15.5833 8.25Z" fill="var(--fill-0, #F5D547)"/>
</g>
</svg>
