<svg preserveAspectRatio="none" width="100%" height="100%" overflow="visible" style="display: block;" viewBox="0 0 36 36" fill="none" xmlns="http://www.w3.org/2000/svg">
<g id="boxicons:education-filled">
<path id="Vector" d="M32.175 12.915L18.675 6.165C18.4676 6.06193 18.2391 6.0083 18.0075 6.0083C17.7759 6.0083 17.5474 6.06193 17.34 6.165L8.34 10.665L3.84 12.915L2.34 13.665C2.09263 13.7896 1.8846 13.9804 1.73898 14.216C1.59337 14.4516 1.51584 14.723 1.515 15V24H4.515V15.93L17.34 22.35C17.55 22.455 17.775 22.515 18.015 22.515C18.255 22.515 18.48 22.455 18.69 22.35L32.19 15.6C32.7 15.345 33.015 14.82 33.015 14.265C33.015 13.71 32.7 13.185 32.19 12.93L32.175 12.915Z" fill="var(--fill-0, #323232)"/>
<path id="Vector_2" d="M18 25.5C17.31 25.5 16.605 25.335 15.99 25.02L7.5 20.775V23.16C7.5 26.25 12.18 30 18 30C23.82 30 28.5 26.265 28.5 23.16V20.775L20.01 25.02C19.395 25.335 18.69 25.5 18 25.5Z" fill="var(--fill-0, #323232)"/>
</g>
</svg>
